<svg width="512" height="512" viewBox="0 0 512 512" fill="none" xmlns="http://www.w3.org/2000/svg">
    <g filter="url(#filter0_di_1006_306)">
        <path d="M362.7 19.3L314.3 67.7L444.3 197.7L492.7 149.3C517.7 124.3 517.7 83.8 492.7 58.8L453.3 19.3C428.3 -5.69995 387.8 -5.69995 362.8 19.3H362.7ZM291.7 90.3L58.6 323.5C48.2 333.9 40.6 346.8 36.4 360.9L0.999997 481.2C-1.5 489.7 0.799997 498.8 7 505C13.2 511.2 22.3 513.5 30.7 511.1L151 475.7C165.1 471.5 178 463.9 188.4 453.5L421.7 220.3L291.7 90.3Z"
              fill="url(#paint0_linear_1006_306)"/>
    </g>
    <defs>
        <filter id="filter0_di_1006_306" x="0.00692749" y="-5.44995" width="527.443" height="523.483"
                filterUnits="userSpaceOnUse" color-interpolation-filters="sRGB">
            <feFlood flood-opacity="0" result="BackgroundImageFix"/>
            <feColorMatrix in="SourceAlpha" type="matrix" values="0 0 0 0 0 0 0 0 0 0 0 0 0 0 0 0 0 0 127 0"
                           result="hardAlpha"/>
            <feOffset dx="10"/>
            <feGaussianBlur stdDeviation="3"/>
            <feComposite in2="hardAlpha" operator="out"/>
            <feColorMatrix type="matrix" values="0 0 0 0 0 0 0 0 0 0 0 0 0 0 0 0 0 0 0.5 0"/>
            <feBlend mode="normal" in2="BackgroundImageFix" result="effect1_dropShadow_1006_306"/>
            <feBlend mode="normal" in="SourceGraphic" in2="effect1_dropShadow_1006_306" result="shape"/>
            <feColorMatrix in="SourceAlpha" type="matrix" values="0 0 0 0 0 0 0 0 0 0 0 0 0 0 0 0 0 0 127 0"
                           result="hardAlpha"/>
            <feOffset dy="4"/>
            <feGaussianBlur stdDeviation="2"/>
            <feComposite in2="hardAlpha" operator="arithmetic" k2="-1" k3="1"/>
            <feColorMatrix type="matrix" values="0 0 0 0 0 0 0 0 0 0 0 0 0 0 0 0 0 0 0.25 0"/>
            <feBlend mode="normal" in2="shape" result="effect2_innerShadow_1006_306"/>
        </filter>
        <linearGradient id="paint0_linear_1006_306" x1="241.667" y1="162.926" x2="241.667" y2="682.527"
                        gradientUnits="userSpaceOnUse">
            <stop stop-color="#FFD363"/>
            <stop offset="1" stop-color="#FCF18B"/>
        </linearGradient>
    </defs>
</svg>
