<svg width="37" height="29" viewBox="0 0 37 29" fill="none" xmlns="http://www.w3.org/2000/svg">
<g filter="url(#filter0_i_1102_306)">
<path d="M13.2336 1.39335C12.7885 0.339839 11.6149 -0.220903 10.4933 0.0792923L5.4058 1.43867C4.39986 1.71054 3.70033 2.60546 3.70033 3.625C3.70033 9.7082 5.88565 15.293 9.52784 19.66L0.5322 26.5701C-0.06905 27.0346 -0.178894 27.8898 0.295169 28.4789C0.769234 29.068 1.6422 29.1756 2.24345 28.7111L36.4685 2.42988C37.0697 1.96543 37.1796 1.11015 36.7055 0.521089C36.2314 -0.0679734 35.3585 -0.175591 34.7572 0.288863L14.6269 15.7461C13.5978 14.5283 12.7249 13.1859 12.0253 11.7416L14.8755 9.45898C15.6675 8.82461 15.9392 7.75976 15.5461 6.83652L13.2336 1.39902V1.39335ZM18.8299 19.4617L13.5516 23.5398C17.9627 26.9609 23.5358 29 29.6003 29C30.641 29 31.5544 28.3146 31.8319 27.3291L33.2194 22.3447C33.5258 21.2459 32.9535 20.0961 31.8782 19.66L26.3282 17.3943C25.3858 17.0092 24.2932 17.2754 23.6514 18.0514L21.3158 20.8437C20.4486 20.4416 19.6219 19.9828 18.8299 19.4674V19.4617Z" fill="url(#paint0_linear_1102_306)"/>
</g>
<defs>
<filter id="filter0_i_1102_306" x="0" y="-0.00128174" width="37.001" height="33.0016" filterUnits="userSpaceOnUse" color-interpolation-filters="sRGB">
<feFlood flood-opacity="0" result="BackgroundImageFix"/>
<feBlend mode="normal" in="SourceGraphic" in2="BackgroundImageFix" result="shape"/>
<feColorMatrix in="SourceAlpha" type="matrix" values="0 0 0 0 0 0 0 0 0 0 0 0 0 0 0 0 0 0 127 0" result="hardAlpha"/>
<feOffset dy="4"/>
<feGaussianBlur stdDeviation="2"/>
<feComposite in2="hardAlpha" operator="arithmetic" k2="-1" k3="1"/>
<feColorMatrix type="matrix" values="0 0 0 0 0 0 0 0 0 0 0 0 0 0 0 0 0 0 0.25 0"/>
<feBlend mode="normal" in2="shape" result="effect1_innerShadow_1102_306"/>
</filter>
<linearGradient id="paint0_linear_1102_306" x1="18.5003" y1="-0.00128174" x2="18.5003" y2="29.0003" gradientUnits="userSpaceOnUse">
<stop stop-color="#131D25"/>
<stop offset="1" stop-color="#131D25"/>
</linearGradient>
</defs>
</svg>
