<svg width="640" height="512" viewBox="0 0 640 512" fill="none" xmlns="http://www.w3.org/2000/svg">
<path d="M228.9 24.6C221.2 6 200.9 -3.9 181.5 1.4L93.4998 25.4C76.0998 30.2 63.9998 46 63.9998 64C63.9998 171.4 101.8 270 164.8 347.1L9.19976 469.1C-1.20024 477.3 -3.10024 492.4 5.09976 502.8C13.2998 513.2 28.3998 515.1 38.7998 506.9L630.8 42.9C641.2 34.7 643.1 19.6 634.9 9.2C626.7 -1.2 611.6 -3.1 601.2 5.1L253 278C235.2 256.5 220.1 232.8 208 207.3L257.3 167C271 155.8 275.7 137 268.9 120.7L228.9 24.7V24.6ZM325.7 343.6L234.4 415.6C310.7 476 407.1 512 512 512C530 512 545.8 499.9 550.6 482.5L574.6 394.5C579.9 375.1 570 354.8 551.4 347.1L455.4 307.1C439.1 300.3 420.2 305 409.1 318.7L368.7 368C353.7 360.9 339.4 352.8 325.7 343.7V343.6Z" fill="url(#paint0_linear_1083_306)"/>
<defs>
<linearGradient id="paint0_linear_1083_306" x1="320" y1="-0.0225525" x2="320" y2="512.006" gradientUnits="userSpaceOnUse">
<stop stop-color="#FFD363"/>
<stop offset="1" stop-color="#FCF18B"/>
</linearGradient>
</defs>
</svg>
