<svg width="36" height="26" viewBox="0 0 36 29" fill="none" xmlns="http://www.w3.org/2000/svg">
    <path d="M17.9969 3.10714C13.9222 3.10714 10.5725 5.02321 8.00399 7.48951C5.59795 9.80692 3.9356 12.558 3.08567 14.5C3.9356 16.442 5.59795 19.1931 7.99774 21.5105C10.5725 23.9768 13.9222 25.8929 17.9969 25.8929C22.0715 25.8929 25.4212 23.9768 27.9898 21.5105C30.3958 19.1931 32.0582 16.442 32.9081 14.5C32.0582 12.558 30.3958 9.80692 27.996 7.48951C25.4212 5.02321 22.0715 3.10714 17.9969 3.10714ZM5.96042 5.21741C8.90391 2.38214 12.9473 0 17.9969 0C23.0464 0 27.0898 2.38214 30.0333 5.21741C32.9581 8.03326 34.9142 11.3929 35.8453 13.7038C36.0516 14.2152 36.0516 14.7848 35.8453 15.2962C34.9142 17.6071 32.9581 20.9732 30.0333 23.7826C27.0898 26.6179 23.0464 29 17.9969 29C12.9473 29 8.90391 26.6179 5.96042 23.7826C3.03567 20.9732 1.07959 17.6071 0.154674 15.2962C-0.051558 14.7848 -0.051558 14.2152 0.154674 13.7038C1.07959 11.3929 3.03567 8.02679 5.96042 5.21741ZM17.9969 19.6786C20.7591 19.6786 22.9964 17.3612 22.9964 14.5C22.9964 11.6388 20.7591 9.32143 17.9969 9.32143C17.9531 9.32143 17.9156 9.32143 17.8719 9.32143C17.9531 9.65156 17.9969 10.0011 17.9969 10.3571C17.9969 12.6422 16.2033 14.5 13.9972 14.5C13.6535 14.5 13.316 14.4547 12.9973 14.3705C12.9973 14.4158 12.9973 14.4547 12.9973 14.5C12.9973 17.3612 15.2346 19.6786 17.9969 19.6786ZM17.9969 6.21429C20.1184 6.21429 22.1531 7.08724 23.6532 8.64111C25.1534 10.195 25.9962 12.3025 25.9962 14.5C25.9962 16.6975 25.1534 18.805 23.6532 20.3589C22.1531 21.9128 20.1184 22.7857 17.9969 22.7857C15.8753 22.7857 13.8407 21.9128 12.3405 20.3589C10.8404 18.805 9.99757 16.6975 9.99757 14.5C9.99757 12.3025 10.8404 10.195 12.3405 8.64111C13.8407 7.08724 15.8753 6.21429 17.9969 6.21429Z"
          fill="#B8A98E"/>
</svg>
