<svg width="800" height="800" viewBox="0 0 800 800" fill="none" xmlns="http://www.w3.org/2000/svg">
<path d="M741.049 58.7438C663 -19.3051 535.132 -19.3051 457.084 58.7438L303.752 212.074C356.338 197.128 413.354 201.003 463.173 224.252L542.88 144.542C573.878 113.544 624.25 113.544 655.248 144.542C686.247 175.54 686.247 225.912 655.248 256.91L555.058 357.101L489.187 422.972C458.189 453.97 407.817 453.97 376.817 422.972L291.019 508.77C310.946 528.699 334.195 543.643 358.55 553.053C424.423 579.07 500.811 569.106 558.379 523.714C563.915 519.287 570.004 514.306 574.985 508.768L678.497 405.257L741.047 342.707C819.651 264.66 819.651 137.346 741.049 58.7438Z" fill="#393633"/>
<path d="M333.091 579.07L256.702 655.458C225.704 686.458 175.332 686.458 144.334 655.458C113.336 624.46 113.336 574.089 144.334 543.09L310.396 377.03C341.394 346.032 391.766 346.032 422.766 377.03L508.564 291.232C488.637 271.304 465.388 256.359 441.032 246.949C371.84 219.272 290.47 232.003 232.349 284.036C229.581 286.25 226.813 289.017 224.599 291.232L58.5376 457.291C-19.5112 535.34 -19.5112 663.207 58.5376 741.258C136.586 819.307 264.454 819.307 342.503 741.258L492.513 589.587C416.121 607.298 398.408 605.086 333.091 579.07Z" fill="#393633"/>
</svg>
