<svg width="240" height="240" viewBox="0 0 240 240" fill="none" xmlns="http://www.w3.org/2000/svg">
<circle cx="120" cy="120" r="110" stroke="url(#paint0_linear_1124_304)" stroke-width="20"/>
<path d="M61.499 69.3333C54.0459 69.3333 47.999 75.3055 47.999 82.6666C47.999 86.8611 49.9959 90.8055 53.399 93.3333L114.599 138.667C117.805 141.028 122.193 141.028 125.399 138.667L186.599 93.3333C190.002 90.8055 191.999 86.8611 191.999 82.6666C191.999 75.3055 185.952 69.3333 178.499 69.3333H61.499ZM47.999 100.444V158.222C47.999 168.028 56.0709 176 65.999 176H173.999C183.927 176 191.999 168.028 191.999 158.222V100.444L130.799 145.778C124.387 150.528 115.612 150.528 109.199 145.778L47.999 100.444Z" fill="url(#paint1_linear_1124_304)"/>
<defs>
<linearGradient id="paint0_linear_1124_304" x1="120" y1="0" x2="120" y2="240" gradientUnits="userSpaceOnUse">
<stop stop-color="#393633"/>
</linearGradient>
<linearGradient id="paint1_linear_1124_304" x1="119.999" y1="69.3333" x2="119.999" y2="176" gradientUnits="userSpaceOnUse">
<stop stop-color="#393633"/>
</linearGradient>
</defs>
</svg>
