<svg width="21" height="29" viewBox="0 0 21 29" fill="none" xmlns="http://www.w3.org/2000/svg">
    <g filter="url(#filter0_i_1107_311)">
        <path d="M10.5 0C7.33807 0 4.77273 2.43555 4.77273 5.4375V14.5C4.77273 17.502 7.33807 19.9375 10.5 19.9375C13.6619 19.9375 16.2273 17.502 16.2273 14.5V5.4375C16.2273 2.43555 13.6619 0 10.5 0ZM2.86364 12.2344C2.86364 11.4811 2.22528 10.875 1.43182 10.875C0.638352 10.875 0 11.4811 0 12.2344V14.5C0 19.5467 3.94943 23.7154 9.06818 24.3781V26.2812H6.20455C5.41108 26.2812 4.77273 26.8873 4.77273 27.6406C4.77273 28.3939 5.41108 29 6.20455 29H10.5H14.7955C15.5889 29 16.2273 28.3939 16.2273 27.6406C16.2273 26.8873 15.5889 26.2812 14.7955 26.2812H11.9318V24.3781C17.0506 23.7154 21 19.5467 21 14.5V12.2344C21 11.4811 20.3616 10.875 19.5682 10.875C18.7747 10.875 18.1364 11.4811 18.1364 12.2344V14.5C18.1364 18.5045 14.7179 21.75 10.5 21.75C6.2821 21.75 2.86364 18.5045 2.86364 14.5V12.2344Z"
              fill="url(#paint0_linear_1107_311)"/>
    </g>
    <defs>
        <filter id="filter0_i_1107_311" x="0" y="0" width="21" height="33" filterUnits="userSpaceOnUse"
                color-interpolation-filters="sRGB">
            <feFlood flood-opacity="0" result="BackgroundImageFix"/>
            <feBlend mode="normal" in="SourceGraphic" in2="BackgroundImageFix" result="shape"/>
            <feColorMatrix in="SourceAlpha" type="matrix" values="0 0 0 0 0 0 0 0 0 0 0 0 0 0 0 0 0 0 127 0"
                           result="hardAlpha"/>
            <feOffset dy="4"/>
            <feGaussianBlur stdDeviation="2"/>
            <feComposite in2="hardAlpha" operator="arithmetic" k2="-1" k3="1"/>
            <feColorMatrix type="matrix" values="0 0 0 0 0 0 0 0 0 0 0 0 0 0 0 0 0 0 0.25 0"/>
            <feBlend mode="normal" in2="shape" result="effect1_innerShadow_1107_311"/>
        </filter>
        <linearGradient id="paint0_linear_1107_311" x1="10.5" y1="0" x2="10.5" y2="29" gradientUnits="userSpaceOnUse">
            <stop stop-color="#FFD363"/>
            <stop offset="1" stop-color="#FCF18B"/>
        </linearGradient>
    </defs>
</svg>
