<svg width="640" height="512" viewBox="0 0 640 512" fill="none" xmlns="http://www.w3.org/2000/svg">
<path d="M320 0C267 0 224 43 224 96V256C224 309 267 352 320 352C373 352 416 309 416 256V96C416 43 373 0 320 0ZM192 216C192 202.7 181.3 192 168 192C154.7 192 144 202.7 144 216V256C144 345.1 210.2 418.7 296 430.4V464H248C234.7 464 224 474.7 224 488C224 501.3 234.7 512 248 512H320H392C405.3 512 416 501.3 416 488C416 474.7 405.3 464 392 464H344V430.4C429.8 418.7 496 345.1 496 256V216C496 202.7 485.3 192 472 192C458.7 192 448 202.7 448 216V256C448 326.7 390.7 384 320 384C249.3 384 192 326.7 192 256V216Z" fill="url(#paint0_linear_1075_306)"/>
<defs>
<linearGradient id="paint0_linear_1075_306" x1="320" y1="0" x2="320" y2="512" gradientUnits="userSpaceOnUse">
<stop stop-color="#FFD363"/>
<stop offset="1" stop-color="#FCF18B"/>
</linearGradient>
</defs>
</svg>
