<svg width="640" height="512" viewBox="0 0 640 512" fill="none" xmlns="http://www.w3.org/2000/svg">
<g clip-path="url(#clip0_1075_308)">
<path d="M38.7998 5.10001C28.3998 -3.09999 13.2998 -1.19999 5.09976 9.20001C-3.10024 19.6 -1.20024 34.7 9.19976 42.9L601.2 506.9C611.6 515.1 626.7 513.2 634.9 502.8C643.1 492.4 641.2 477.3 630.8 469.1L472.1 344.7C487.3 318.7 496 288.4 496 256V216C496 202.7 485.3 192 472 192C458.7 192 448 202.7 448 216V256C448 277.2 442.9 297.1 433.8 314.7L416 300.8V96C416 43 373 5.74579e-06 320 5.74579e-06C267 5.74579e-06 224 43 224 96V150.3L38.7998 5.10001ZM344 430.4C364.4 427.6 383.7 421.3 401.3 412.2L358.2 378.3C346.1 382 333.3 384 320 384C249.3 384 192 326.7 192 256V247.3L144.7 210C144.2 211.9 144 213.9 144 216V256C144 345.1 210.2 418.7 296 430.4V464H248C234.7 464 224 474.7 224 488C224 501.3 234.7 512 248 512H320H392C405.3 512 416 501.3 416 488C416 474.7 405.3 464 392 464H344V430.4Z" fill="url(#paint0_linear_1075_308)"/>
</g>
<defs>
<linearGradient id="paint0_linear_1075_308" x1="320" y1="-0.00561523" x2="320" y2="512.006" gradientUnits="userSpaceOnUse">
<stop stop-color="#FFD363"/>
<stop offset="1" stop-color="#FCF18B"/>
</linearGradient>
<clipPath id="clip0_1075_308">
<rect width="640" height="512" fill="white"/>
</clipPath>
</defs>
</svg>
