<svg width="512" height="512" viewBox="0 0 512 512" fill="none" xmlns="http://www.w3.org/2000/svg">
<path d="M0 256C0 323.895 26.9714 389.01 74.9807 437.019C122.99 485.029 188.105 512 256 512C323.895 512 389.01 485.029 437.019 437.019C485.029 389.01 512 323.895 512 256C512 188.105 485.029 122.99 437.019 74.9807C389.01 26.9714 323.895 0 256 0C188.105 0 122.99 26.9714 74.9807 74.9807C26.9714 122.99 0 188.105 0 256ZM240 336C240 327.2 247.2 320 256 320C301 320 341.6 340.5 371.7 373.1C377.7 379.6 377.3 389.7 370.8 395.7C364.3 401.7 354.2 401.3 348.2 394.8C323.2 367.7 290.8 351.9 255.9 351.9C247.1 351.9 239.9 344.7 239.9 335.9L240 336ZM160 416C133.5 416 112 395 112 369C112 349 140.6 308.6 153.6 291.3C156.8 286.9 163.2 286.9 166.4 291.3C179.6 308.6 208 349 208 369C208 395 186.5 416 160 416ZM367.6 208C367.6 216.487 364.229 224.626 358.227 230.627C352.226 236.629 344.087 240 335.6 240C327.113 240 318.974 236.629 312.973 230.627C306.971 224.626 303.6 216.487 303.6 208C303.6 199.513 306.971 191.374 312.973 185.373C318.974 179.371 327.113 176 335.6 176C344.087 176 352.226 179.371 358.227 185.373C364.229 191.374 367.6 199.513 367.6 208ZM175.6 176C184.087 176 192.226 179.371 198.227 185.373C204.229 191.374 207.6 199.513 207.6 208C207.6 216.487 204.229 224.626 198.227 230.627C192.226 236.629 184.087 240 175.6 240C167.113 240 158.974 236.629 152.973 230.627C146.971 224.626 143.6 216.487 143.6 208C143.6 199.513 146.971 191.374 152.973 185.373C158.974 179.371 167.113 176 175.6 176Z" fill="url(#paint0_linear_1111_304)"/>
<defs>
<linearGradient id="paint0_linear_1111_304" x1="256" y1="0" x2="256" y2="512" gradientUnits="userSpaceOnUse">
<stop stop-color="#FFD363"/>
<stop offset="1" stop-color="#FCF18B"/>
</linearGradient>
</defs>
</svg>
