<svg width="18" height="14" viewBox="0 0 18 14" fill="none" xmlns="http://www.w3.org/2000/svg">
    <path d="M15.0075 0.166672C16.8328 1.77814 18 4.24274 18 7.00089C18 9.75904 16.8328 12.2206 15.0075 13.8351C14.7178 14.092 14.2931 14.043 14.0569 13.7281C13.8206 13.4131 13.8656 12.9514 14.1553 12.6945C15.6797 11.3491 16.65 9.30037 16.65 7.00089C16.65 4.70141 15.6797 2.65268 14.1553 1.30418C13.8656 1.04732 13.8234 0.585593 14.0569 0.270638C14.2903 -0.0443167 14.7178 -0.090184 15.0075 0.163615V0.166672ZM13.3059 2.44475C14.5209 3.5211 15.3 5.16314 15.3 7.00089C15.3 8.83864 14.5209 10.4807 13.3059 11.557C13.0162 11.8139 12.5916 11.765 12.3553 11.45C12.1191 11.1351 12.1641 10.6733 12.4537 10.4165C13.3678 9.60921 13.95 8.37996 13.95 7.00089C13.95 5.62182 13.3678 4.39257 12.4537 3.58225C12.1641 3.3254 12.1219 2.86367 12.3553 2.54871C12.5887 2.23376 13.0162 2.18789 13.3059 2.44169V2.44475ZM11.6044 4.72282C12.2091 5.26099 12.6 6.08049 12.6 7.00089C12.6 7.92129 12.2091 8.74079 11.6044 9.27896C11.3147 9.53582 10.89 9.48689 10.6537 9.17194C10.4175 8.85698 10.4625 8.39526 10.7522 8.1384C11.0559 7.86931 11.25 7.45956 11.25 7.00089C11.25 6.54222 11.0559 6.13247 10.7522 5.86032C10.4625 5.60347 10.4203 5.14174 10.6537 4.82678C10.8872 4.51183 11.3147 4.46596 11.6044 4.71976V4.72282ZM8.46844 0.237002C8.79187 0.396009 9 0.7446 9 1.12988V12.8719C9 13.2572 8.79187 13.6058 8.46844 13.7648C8.145 13.9238 7.76531 13.8596 7.50094 13.6027L3.70688 9.93639H1.8C0.807187 9.93639 0 9.0588 0 7.97939V6.02239C0 4.94298 0.807187 4.06539 1.8 4.06539H3.70688L7.50094 0.399066C7.76531 0.14221 8.145 0.0810536 8.46844 0.237002Z"
          fill="black"/>
    <path d="M15.0075 0.166672C16.8328 1.77814 18 4.24274 18 7.00089C18 9.75904 16.8328 12.2206 15.0075 13.8351C14.7178 14.092 14.2931 14.043 14.0569 13.7281C13.8206 13.4131 13.8656 12.9514 14.1553 12.6945C15.6797 11.3491 16.65 9.30037 16.65 7.00089C16.65 4.70141 15.6797 2.65268 14.1553 1.30418C13.8656 1.04732 13.8234 0.585593 14.0569 0.270638C14.2903 -0.0443167 14.7178 -0.090184 15.0075 0.163615V0.166672ZM13.3059 2.44475C14.5209 3.5211 15.3 5.16314 15.3 7.00089C15.3 8.83864 14.5209 10.4807 13.3059 11.557C13.0162 11.8139 12.5916 11.765 12.3553 11.45C12.1191 11.1351 12.1641 10.6733 12.4537 10.4165C13.3678 9.60921 13.95 8.37996 13.95 7.00089C13.95 5.62182 13.3678 4.39257 12.4537 3.58225C12.1641 3.3254 12.1219 2.86367 12.3553 2.54871C12.5887 2.23376 13.0162 2.18789 13.3059 2.44169V2.44475ZM11.6044 4.72282C12.2091 5.26099 12.6 6.08049 12.6 7.00089C12.6 7.92129 12.2091 8.74079 11.6044 9.27896C11.3147 9.53582 10.89 9.48689 10.6537 9.17194C10.4175 8.85698 10.4625 8.39526 10.7522 8.1384C11.0559 7.86931 11.25 7.45956 11.25 7.00089C11.25 6.54222 11.0559 6.13247 10.7522 5.86032C10.4625 5.60347 10.4203 5.14174 10.6537 4.82678C10.8872 4.51183 11.3147 4.46596 11.6044 4.71976V4.72282ZM8.46844 0.237002C8.79187 0.396009 9 0.7446 9 1.12988V12.8719C9 13.2572 8.79187 13.6058 8.46844 13.7648C8.145 13.9238 7.76531 13.8596 7.50094 13.6027L3.70688 9.93639H1.8C0.807187 9.93639 0 9.0588 0 7.97939V6.02239C0 4.94298 0.807187 4.06539 1.8 4.06539H3.70688L7.50094 0.399066C7.76531 0.14221 8.145 0.0810536 8.46844 0.237002Z"
          fill="url(#paint0_linear_1092_476)"/>
    <defs>
        <linearGradient id="paint0_linear_1092_476" x1="9" y1="0" x2="9" y2="14" gradientUnits="userSpaceOnUse">
            <stop stop-color="#FFD363"/>
            <stop offset="1" stop-color="#FCF18B"/>
        </linearGradient>
    </defs>
</svg>
