<?xml version="1.0" encoding="UTF-8"?>
<!DOCTYPE svg PUBLIC "-//W3C//DTD SVG 1.1//EN" "http://www.w3.org/Graphics/SVG/1.1/DTD/svg11.dtd">
<svg xmlns="http://www.w3.org/2000/svg" version="1.1" width="311px" height="311px" style="shape-rendering:geometricPrecision; text-rendering:geometricPrecision; image-rendering:optimizeQuality; fill-rule:evenodd; clip-rule:evenodd" xmlns:xlink="http://www.w3.org/1999/xlink">
<g><path style="opacity:0.993" fill="#ababab" d="M 137.5,-0.5 C 149.167,-0.5 160.833,-0.5 172.5,-0.5C 235.068,9.37546 278.235,43.7088 302,102.5C 305.935,114.037 308.769,125.704 310.5,137.5C 310.5,149.167 310.5,160.833 310.5,172.5C 307.269,196.977 298.935,219.644 285.5,240.5C 278.243,238.582 270.91,236.915 263.5,235.5C 251.817,232.174 240.151,228.507 228.5,224.5C 224.189,222.437 219.689,220.437 215,218.5C 214.5,218.833 214,219.167 213.5,219.5C 217.91,222.372 222.577,224.705 227.5,226.5C 227.842,227.338 228.508,227.672 229.5,227.5C 230.99,229.28 232.99,229.946 235.5,229.5C 235.842,230.338 236.508,230.672 237.5,230.5C 238.918,232.308 240.918,232.975 243.5,232.5C 244.708,233.234 246.041,233.567 247.5,233.5C 247.611,234.117 247.944,234.617 248.5,235C 250.473,235.495 252.473,235.662 254.5,235.5C 255.568,236.434 256.901,236.768 258.5,236.5C 266.685,238.628 275.018,240.628 283.5,242.5C 277.957,251.382 271.29,259.382 263.5,266.5C 262.167,265.167 260.833,263.833 259.5,262.5C 258.866,261.053 257.699,260.387 256,260.5C 254.93,260.528 254.097,260.861 253.5,261.5C 252.167,261.5 251.5,262.167 251.5,263.5C 249.394,268.551 248.394,273.885 248.5,279.5C 242.3,285.014 235.3,289.347 227.5,292.5C 227.737,291.209 227.404,290.209 226.5,289.5C 226.629,287.784 226.962,286.117 227.5,284.5C 228.227,282.046 229.227,279.713 230.5,277.5C 231.906,277.027 232.573,276.027 232.5,274.5C 232.5,274.167 232.5,273.833 232.5,273.5C 233.906,273.027 234.573,272.027 234.5,270.5C 237.747,264.917 241.747,259.917 246.5,255.5C 247.631,253.926 247.798,252.259 247,250.5C 235.293,239.457 222.46,229.957 208.5,222C 206.297,219.628 203.963,217.461 201.5,215.5C 200.548,214.548 199.548,213.548 198.5,212.5C 197.605,214.345 198.272,215.678 200.5,216.5C 205.247,221.67 209.247,227.336 212.5,233.5C 212.427,235.027 213.094,236.027 214.5,236.5C 216,243.168 218.666,249.335 222.5,255C 209.598,259.579 196.598,259.579 183.5,255C 180.999,252.129 178.499,249.296 176,246.5C 175.249,242.595 175.749,238.929 177.5,235.5C 178.674,234.486 179.34,233.153 179.5,231.5C 179.755,228.984 180.589,226.65 182,224.5C 186.663,217.013 191.496,209.68 196.5,202.5C 198.088,200.887 199.088,198.887 199.5,196.5C 202.247,193.277 204.247,189.611 205.5,185.5C 206.674,184.486 207.34,183.153 207.5,181.5C 209.029,177.579 210.363,173.579 211.5,169.5C 212.434,168.432 212.768,167.099 212.5,165.5C 214.994,163.201 217.494,160.867 220,158.5C 219.799,154.271 220.966,150.604 223.5,147.5C 224.222,146.449 225.222,145.782 226.5,145.5C 237.207,145.776 247.873,145.276 258.5,144C 265.547,143.312 266.213,140.979 260.5,137C 243.566,132.413 226.566,128.08 209.5,124C 203.333,121.001 196.999,118.501 190.5,116.5C 189.365,114.787 187.698,114.12 185.5,114.5C 178.751,112.578 172.417,109.911 166.5,106.5C 160.855,104.147 161.189,103.147 167.5,103.5C 168.99,105.28 170.99,105.946 173.5,105.5C 179.624,106.764 185.624,108.431 191.5,110.5C 192.635,112.213 194.302,112.88 196.5,112.5C 197.99,114.28 199.99,114.946 202.5,114.5C 207.375,115.605 212.042,117.272 216.5,119.5C 217.287,121.104 218.62,121.771 220.5,121.5C 220.5,112.5 220.5,103.5 220.5,94.5C 220.178,80.8184 219.512,67.1518 218.5,53.5C 214.545,50.3576 210.212,48.0243 205.5,46.5C 203.964,43.9078 201.631,42.9078 198.5,43.5C 179.418,37.1898 160.085,35.5231 140.5,38.5C 137.848,38.4095 135.515,39.0762 133.5,40.5C 131.072,41.2122 128.739,42.2122 126.5,43.5C 124.833,45.8333 122.833,47.8333 120.5,49.5C 116.393,61.0415 112.727,72.7081 109.5,84.5C 108.539,86.2646 108.205,88.2646 108.5,90.5C 106.5,90.5 104.5,90.5 102.5,90.5C 92.1282,89.0193 81.7949,89.5193 71.5,92C 68.8261,92.6701 66.4927,93.8368 64.5,95.5C 62.9731,95.427 61.9731,96.0937 61.5,97.5C 60.0532,98.1342 59.3866,99.3009 59.5,101C 59.528,102.07 59.8614,102.903 60.5,103.5C 64.1425,109.471 69.1425,114.138 75.5,117.5C 75.9731,118.906 76.9731,119.573 78.5,119.5C 81.3561,121.093 84.3561,122.427 87.5,123.5C 88.287,125.104 89.6203,125.771 91.5,125.5C 92.5,125.5 93.5,125.5 94.5,125.5C 92.8581,135.279 93.3581,144.946 96,154.5C 97.0298,156.346 98.1964,158.013 99.5,159.5C 99.8417,160.338 100.508,160.672 101.5,160.5C 101.902,157.523 102.902,154.857 104.5,152.5C 105.476,153.815 106.476,155.148 107.5,156.5C 106.184,169.441 105.351,182.441 105,195.5C 104.059,197.727 102.892,199.727 101.5,201.5C 100.833,199.167 100.167,196.833 99.5,194.5C 99.762,193.022 99.4287,191.689 98.5,190.5C 97.4777,190.855 96.811,191.522 96.5,192.5C 94.0763,199.08 94.243,205.746 97,212.5C 105.295,224.295 115.128,234.629 126.5,243.5C 128.63,244.711 130.63,246.044 132.5,247.5C 129.833,247.167 127.167,246.833 124.5,246.5C 123.726,245.853 122.726,245.52 121.5,245.5C 119.97,245.64 118.97,246.307 118.5,247.5C 112.511,260.499 104.177,271.832 93.5,281.5C 92.8333,278.5 92.1667,275.5 91.5,272.5C 89.3955,253.226 88.0622,233.893 87.5,214.5C 87.888,209.119 88.5546,203.786 89.5,198.5C 90.782,197.292 90.782,195.958 89.5,194.5C 88.8933,194.624 88.56,194.957 88.5,195.5C 82.566,202.257 75.566,207.757 67.5,212C 50.3209,216.869 32.9876,221.035 15.5,224.5C 7.36384,207.936 2.0305,190.603 -0.5,172.5C -0.5,160.833 -0.5,149.167 -0.5,137.5C 9.37546,74.9318 43.7088,31.7651 102.5,8C 114.037,4.06479 125.704,1.23146 137.5,-0.5 Z"/></g>
<g><path style="opacity:1" fill="#020202" d="M 198.5,43.5 C 200.843,44.3443 203.176,45.3443 205.5,46.5C 210.212,48.0243 214.545,50.3576 218.5,53.5C 219.512,67.1518 220.178,80.8184 220.5,94.5C 219.67,102.99 219.17,111.657 219,120.5C 218.329,119.748 217.496,119.414 216.5,119.5C 212.042,117.272 207.375,115.605 202.5,114.5C 200.786,113.262 198.786,112.595 196.5,112.5C 195.07,111.463 193.403,110.796 191.5,110.5C 185.624,108.431 179.624,106.764 173.5,105.5C 171.786,104.262 169.786,103.595 167.5,103.5C 161.423,101.259 155.09,99.5925 148.5,98.5C 143.426,96.5953 138.092,95.262 132.5,94.5C 125.724,92.5762 118.724,91.0762 111.5,90C 109.808,88.5993 109.141,86.7659 109.5,84.5C 112.727,72.7081 116.393,61.0415 120.5,49.5C 122.833,47.8333 124.833,45.8333 126.5,43.5C 128.739,42.2122 131.072,41.2122 133.5,40.5C 136.152,40.5905 138.485,39.9238 140.5,38.5C 160.085,35.5231 179.418,37.1898 198.5,43.5 Z"/></g>
<g><path style="opacity:1" fill="#303030" d="M 140.5,38.5 C 138.485,39.9238 136.152,40.5905 133.5,40.5C 135.515,39.0762 137.848,38.4095 140.5,38.5 Z"/></g>
<g><path style="opacity:1" fill="#818181" d="M 198.5,43.5 C 201.631,42.9078 203.964,43.9078 205.5,46.5C 203.176,45.3443 200.843,44.3443 198.5,43.5 Z"/></g>
<g><path style="opacity:1" fill="#272727" d="M 206.5,82.5 C 206.53,81.5028 206.03,80.8361 205,80.5C 203.989,81.0556 203.156,81.7222 202.5,82.5C 202.5,81.5 202.5,80.5 202.5,79.5C 204.167,79.5 205.833,79.5 207.5,79.5C 207.737,80.791 207.404,81.791 206.5,82.5 Z"/></g>
<g><path style="opacity:1" fill="#909090" d="M 206.5,82.5 C 205.833,83.5 205.167,84.5 204.5,85.5C 203.094,85.0269 202.427,84.0269 202.5,82.5C 203.156,81.7222 203.989,81.0556 205,80.5C 206.03,80.8361 206.53,81.5028 206.5,82.5 Z"/></g>
<g><path style="opacity:1" fill="#919191" d="M 214.5,82.5 C 214.663,84.8568 214.497,87.1902 214,89.5C 213.617,88.944 213.117,88.6107 212.5,88.5C 212.167,88.5 211.833,88.5 211.5,88.5C 211.5,87.1667 211.5,85.8333 211.5,84.5C 210.209,84.7373 209.209,84.404 208.5,83.5C 210.402,81.8489 212.402,81.5155 214.5,82.5 Z"/></g>
<g><path style="opacity:1" fill="#3f3f3f" d="M 206.5,82.5 C 206.409,84.6977 207.075,85.0311 208.5,83.5C 209.209,84.404 210.209,84.7373 211.5,84.5C 211.5,85.8333 211.5,87.1667 211.5,88.5C 210.596,87.791 210.263,86.791 210.5,85.5C 208.309,86.2907 206.309,86.2907 204.5,85.5C 205.167,84.5 205.833,83.5 206.5,82.5 Z"/></g>
<g><path style="opacity:1" fill="#686868" d="M 214.5,82.5 C 215.216,84.5563 215.883,86.723 216.5,89C 214.694,91.1368 213.36,90.9701 212.5,88.5C 213.117,88.6107 213.617,88.944 214,89.5C 214.497,87.1902 214.663,84.8568 214.5,82.5 Z"/></g>
<g><path style="opacity:0.997" fill="#040404" d="M 102.5,90.5 C 111.745,91.9312 121.078,93.5979 130.5,95.5C 135.179,96.6132 139.846,97.9465 144.5,99.5C 151.895,101.855 159.228,104.188 166.5,106.5C 172.417,109.911 178.751,112.578 185.5,114.5C 186.78,115.931 188.447,116.598 190.5,116.5C 196.999,118.501 203.333,121.001 209.5,124C 226.566,128.08 243.566,132.413 260.5,137C 266.213,140.979 265.547,143.312 258.5,144C 247.873,145.276 237.207,145.776 226.5,145.5C 225.791,144.596 224.791,144.263 223.5,144.5C 223.5,145.5 223.5,146.5 223.5,147.5C 220.966,150.604 219.799,154.271 220,158.5C 217.494,160.867 214.994,163.201 212.5,165.5C 208.901,166.344 205.234,166.677 201.5,166.5C 199.574,165.514 197.574,164.514 195.5,163.5C 195.44,162.957 195.107,162.624 194.5,162.5C 193.818,163.243 193.151,163.909 192.5,164.5C 191.883,164.389 191.383,164.056 191,163.5C 190.469,157.829 189.969,152.162 189.5,146.5C 189.5,145.167 189.5,143.833 189.5,142.5C 188.209,142.263 187.209,142.596 186.5,143.5C 184.78,151.961 183.446,160.628 182.5,169.5C 182.57,170.772 182.903,171.938 183.5,173C 185.92,173.29 188.254,173.79 190.5,174.5C 191.9,175.1 192.9,176.1 193.5,177.5C 191.028,179.62 188.194,181.286 185,182.5C 184.04,185.633 183.207,188.8 182.5,192C 186.526,195.513 191.193,197.679 196.5,198.5C 197.354,199.632 197.354,200.965 196.5,202.5C 191.496,209.68 186.663,217.013 182,224.5C 180.589,226.65 179.755,228.984 179.5,231.5C 177.896,232.287 177.229,233.62 177.5,235.5C 175.749,238.929 175.249,242.595 176,246.5C 178.499,249.296 180.999,252.129 183.5,255C 196.598,259.579 209.598,259.579 222.5,255C 218.666,249.335 216,243.168 214.5,236.5C 214.573,234.973 213.906,233.973 212.5,233.5C 209.247,227.336 205.247,221.67 200.5,216.5C 200.5,215.833 200.833,215.5 201.5,215.5C 203.963,217.461 206.297,219.628 208.5,222C 222.46,229.957 235.293,239.457 247,250.5C 247.798,252.259 247.631,253.926 246.5,255.5C 241.747,259.917 237.747,264.917 234.5,270.5C 233.094,270.973 232.427,271.973 232.5,273.5C 232.5,273.833 232.5,274.167 232.5,274.5C 231.094,274.973 230.427,275.973 230.5,277.5C 229.227,279.713 228.227,282.046 227.5,284.5C 225.403,285.879 225.07,287.545 226.5,289.5C 227.404,290.209 227.737,291.209 227.5,292.5C 210.306,302.047 191.973,308.047 172.5,310.5C 164.833,310.5 157.167,310.5 149.5,310.5C 149.833,309.167 150.167,307.833 150.5,306.5C 151.674,305.486 152.34,304.153 152.5,302.5C 152.5,302.167 152.5,301.833 152.5,301.5C 153.738,299.786 154.405,297.786 154.5,295.5C 156.27,290.298 157.937,284.964 159.5,279.5C 160.461,277.735 160.795,275.735 160.5,273.5C 161.793,271.636 161.793,269.636 160.5,267.5C 159.702,267.957 159.369,268.624 159.5,269.5C 158.265,272.33 157.265,275.33 156.5,278.5C 156.443,279.609 156.11,280.609 155.5,281.5C 153.896,282.287 153.229,283.62 153.5,285.5C 152.003,290.659 150.336,295.659 148.5,300.5C 147.215,303.589 146.549,306.922 146.5,310.5C 144.833,310.5 143.167,310.5 141.5,310.5C 142.524,303.305 144.191,296.305 146.5,289.5C 147.738,287.786 148.405,285.786 148.5,283.5C 149.404,282.791 149.737,281.791 149.5,280.5C 150.738,278.786 151.405,276.786 151.5,274.5C 152.869,272.309 153.869,269.975 154.5,267.5C 155.434,266.228 156.101,264.728 156.5,263C 156.361,261.699 155.695,260.866 154.5,260.5C 153.078,259.075 151.411,258.075 149.5,257.5C 148.228,256.566 146.728,255.899 145,255.5C 143.251,255.748 142.418,256.748 142.5,258.5C 139.287,265.644 136.954,273.144 135.5,281C 136.858,290.802 137.858,300.636 138.5,310.5C 138.167,310.5 137.833,310.5 137.5,310.5C 127.63,309.059 117.963,306.726 108.5,303.5C 108.898,299.239 109.898,295.239 111.5,291.5C 112.708,290.766 114.041,290.433 115.5,290.5C 115.5,288.833 115.5,287.167 115.5,285.5C 116.488,280.36 116.821,275.026 116.5,269.5C 115.209,269.263 114.209,269.596 113.5,270.5C 107.972,276.177 101.472,280.51 94,283.5C 93.5007,288.489 93.3341,293.489 93.5,298.5C 88.3065,296.072 83.3065,293.405 78.5,290.5C 78.8297,284.132 78.4963,277.798 77.5,271.5C 76.8933,271.624 76.56,271.957 76.5,272.5C 76.0506,277.863 75.3839,283.196 74.5,288.5C 48.5753,272.91 28.9087,251.576 15.5,224.5C 32.9876,221.035 50.3209,216.869 67.5,212C 75.566,207.757 82.566,202.257 88.5,195.5C 89.404,196.209 89.7373,197.209 89.5,198.5C 88.5546,203.786 87.888,209.119 87.5,214.5C 88.0622,233.893 89.3955,253.226 91.5,272.5C 91.1796,275.898 91.513,279.232 92.5,282.5C 93.1067,282.376 93.44,282.043 93.5,281.5C 104.177,271.832 112.511,260.499 118.5,247.5C 120.379,246.659 122.379,246.325 124.5,246.5C 127.167,246.833 129.833,247.167 132.5,247.5C 134.67,245.914 137.004,244.58 139.5,243.5C 141.117,242.962 142.784,242.629 144.5,242.5C 144.833,242.5 145.167,242.5 145.5,242.5C 149.836,247.513 153.836,252.847 157.5,258.5C 158.614,259.776 159.614,259.776 160.5,258.5C 161.738,256.786 162.405,254.786 162.5,252.5C 165.253,246.481 167.92,240.315 170.5,234C 170.355,233.228 170.022,232.561 169.5,232C 160.324,229.129 152.324,230.962 145.5,237.5C 141.162,239.669 136.829,241.836 132.5,244C 130.455,244.49 128.455,244.323 126.5,243.5C 115.128,234.629 105.295,224.295 97,212.5C 94.243,205.746 94.0763,199.08 96.5,192.5C 97.7777,192.782 98.7777,193.449 99.5,194.5C 99.1866,197.247 99.52,199.914 100.5,202.5C 101.107,202.376 101.44,202.043 101.5,201.5C 102.892,199.727 104.059,197.727 105,195.5C 105.351,182.441 106.184,169.441 107.5,156.5C 106.476,155.148 105.476,153.815 104.5,152.5C 102.833,150.5 101.167,148.5 99.5,146.5C 98.6136,145.224 97.6136,145.224 96.5,146.5C 96.6236,147.107 96.9569,147.44 97.5,147.5C 97.615,149.947 98.615,151.947 100.5,153.5C 100.795,155.735 100.461,157.735 99.5,159.5C 98.1964,158.013 97.0298,156.346 96,154.5C 93.3581,144.946 92.8581,135.279 94.5,125.5C 93.5,125.5 92.5,125.5 91.5,125.5C 90.4863,124.326 89.153,123.66 87.5,123.5C 84.3561,122.427 81.3561,121.093 78.5,119.5C 78.0269,118.094 77.0269,117.427 75.5,117.5C 69.1425,114.138 64.1425,109.471 60.5,103.5C 60.5172,101.435 60.8505,99.4352 61.5,97.5C 63.0269,97.573 64.0269,96.9063 64.5,95.5C 66.4927,93.8368 68.8261,92.6701 71.5,92C 81.7949,89.5193 92.1282,89.0193 102.5,90.5 Z"/></g>
<g><path style="opacity:1" fill="#3e3e3e" d="M 109.5,84.5 C 109.141,86.7659 109.808,88.5993 111.5,90C 118.724,91.0762 125.724,92.5762 132.5,94.5C 131.508,94.3284 130.842,94.6618 130.5,95.5C 121.078,93.5979 111.745,91.9312 102.5,90.5C 104.5,90.5 106.5,90.5 108.5,90.5C 108.205,88.2646 108.539,86.2646 109.5,84.5 Z"/></g>
<g><path style="opacity:1" fill="#6c6c6c" d="M 132.5,94.5 C 138.092,95.262 143.426,96.5953 148.5,98.5C 146.901,98.2322 145.568,98.5655 144.5,99.5C 139.846,97.9465 135.179,96.6132 130.5,95.5C 130.842,94.6618 131.508,94.3284 132.5,94.5 Z"/></g>
<g><path style="opacity:1" fill="#353535" d="M 64.5,95.5 C 64.0269,96.9063 63.0269,97.573 61.5,97.5C 61.9731,96.0937 62.9731,95.427 64.5,95.5 Z"/></g>
<g><path style="opacity:1" fill="#474747" d="M 220.5,94.5 C 220.5,103.5 220.5,112.5 220.5,121.5C 218.62,121.771 217.287,121.104 216.5,119.5C 217.496,119.414 218.329,119.748 219,120.5C 219.17,111.657 219.67,102.99 220.5,94.5 Z"/></g>
<g><path style="opacity:1" fill="#444444" d="M 61.5,97.5 C 60.8505,99.4352 60.5172,101.435 60.5,103.5C 59.8614,102.903 59.528,102.07 59.5,101C 59.3866,99.3009 60.0532,98.1342 61.5,97.5 Z"/></g>
<g><path style="opacity:1" fill="#8d8d8d" d="M 144.5,99.5 C 145.568,98.5655 146.901,98.2322 148.5,98.5C 155.09,99.5925 161.423,101.259 167.5,103.5C 161.189,103.147 160.855,104.147 166.5,106.5C 159.228,104.188 151.895,101.855 144.5,99.5 Z"/></g>
<g><path style="opacity:1" fill="#818181" d="M 167.5,103.5 C 169.786,103.595 171.786,104.262 173.5,105.5C 170.99,105.946 168.99,105.28 167.5,103.5 Z"/></g>
<g><path style="opacity:1" fill="#5d5d5d" d="M 191.5,110.5 C 193.403,110.796 195.07,111.463 196.5,112.5C 194.302,112.88 192.635,112.213 191.5,110.5 Z"/></g>
<g><path style="opacity:1" fill="#828282" d="M 196.5,112.5 C 198.786,112.595 200.786,113.262 202.5,114.5C 199.99,114.946 197.99,114.28 196.5,112.5 Z"/></g>
<g><path style="opacity:1" fill="#707070" d="M 185.5,114.5 C 187.698,114.12 189.365,114.787 190.5,116.5C 188.447,116.598 186.78,115.931 185.5,114.5 Z"/></g>
<g><path style="opacity:1" fill="#585858" d="M 75.5,117.5 C 77.0269,117.427 78.0269,118.094 78.5,119.5C 76.9731,119.573 75.9731,118.906 75.5,117.5 Z"/></g>
<g><path style="opacity:1" fill="#5c5c5c" d="M 87.5,123.5 C 89.153,123.66 90.4863,124.326 91.5,125.5C 89.6203,125.771 88.287,125.104 87.5,123.5 Z"/></g>
<g><path style="opacity:1" fill="#4d4d4d" d="M 116.5,142.5 C 115.022,143.448 114.022,144.781 113.5,146.5C 113.5,144.833 113.5,143.167 113.5,141.5C 114.791,141.263 115.791,141.596 116.5,142.5 Z"/></g>
<g><path style="opacity:1" fill="#494949" d="M 186.5,143.5 C 187.209,142.596 188.209,142.263 189.5,142.5C 189.5,143.833 189.5,145.167 189.5,146.5C 188.9,145.1 187.9,144.1 186.5,143.5 Z"/></g>
<g><path style="opacity:1" fill="#a8a8a8" d="M 116.5,142.5 C 120.168,147.007 123.668,151.673 127,156.5C 130.387,164.593 131.22,172.926 129.5,181.5C 128.671,188.655 128.171,195.989 128,203.5C 127.329,202.748 126.496,202.414 125.5,202.5C 120.305,197.794 115.805,192.461 112,186.5C 112.952,173.21 113.452,159.877 113.5,146.5C 114.022,144.781 115.022,143.448 116.5,142.5 Z"/></g>
<g><path style="opacity:1" fill="#a5a5a5" d="M 186.5,143.5 C 187.9,144.1 188.9,145.1 189.5,146.5C 189.969,152.162 190.469,157.829 191,163.5C 191.383,164.056 191.883,164.389 192.5,164.5C 193.11,165.391 193.443,166.391 193.5,167.5C 193.5,169.833 193.5,172.167 193.5,174.5C 192.5,174.5 191.5,174.5 190.5,174.5C 188.254,173.79 185.92,173.29 183.5,173C 182.903,171.938 182.57,170.772 182.5,169.5C 183.446,160.628 184.78,151.961 186.5,143.5 Z"/></g>
<g><path style="opacity:1" fill="#3d3d3d" d="M 226.5,145.5 C 225.222,145.782 224.222,146.449 223.5,147.5C 223.5,146.5 223.5,145.5 223.5,144.5C 224.791,144.263 225.791,144.596 226.5,145.5 Z"/></g>
<g><path style="opacity:1" fill="#3c3c3c" d="M 99.5,146.5 C 98.5084,146.328 97.8417,146.662 97.5,147.5C 96.9569,147.44 96.6236,147.107 96.5,146.5C 97.6136,145.224 98.6136,145.224 99.5,146.5 Z"/></g>
<g><path style="opacity:1" fill="#939393" d="M 99.5,146.5 C 101.167,148.5 102.833,150.5 104.5,152.5C 102.902,154.857 101.902,157.523 101.5,160.5C 101.802,157.941 101.468,155.607 100.5,153.5C 98.615,151.947 97.615,149.947 97.5,147.5C 97.8417,146.662 98.5084,146.328 99.5,146.5 Z"/></g>
<g><path style="opacity:1" fill="#484848" d="M 100.5,153.5 C 101.468,155.607 101.802,157.941 101.5,160.5C 100.508,160.672 99.8417,160.338 99.5,159.5C 100.461,157.735 100.795,155.735 100.5,153.5 Z"/></g>
<g><path style="opacity:1" fill="#494949" d="M 159.5,156.5 C 158.5,156.5 157.5,156.5 156.5,156.5C 156.5,162.5 156.5,168.5 156.5,174.5C 155.182,167.989 155.182,161.322 156.5,154.5C 157.739,154.942 158.739,155.609 159.5,156.5 Z"/></g>
<g><path style="opacity:1" fill="#a1a1a1" d="M 159.5,156.5 C 160.791,156.263 161.791,156.596 162.5,157.5C 165.167,158.167 167.833,158.833 170.5,159.5C 167.493,163.511 164.993,167.845 163,172.5C 161.211,174.229 159.044,174.896 156.5,174.5C 156.5,168.5 156.5,162.5 156.5,156.5C 157.5,156.5 158.5,156.5 159.5,156.5 Z"/></g>
<g><path style="opacity:1" fill="#606060" d="M 162.5,157.5 C 165.572,157.183 168.572,157.516 171.5,158.5C 171.376,159.107 171.043,159.44 170.5,159.5C 167.833,158.833 165.167,158.167 162.5,157.5 Z"/></g>
<g><path style="opacity:1" fill="#101010" d="M 195.5,163.5 C 194.475,163.897 194.308,164.563 195,165.5C 199.172,170.552 204.005,171.552 209.5,168.5C 210.925,166.969 211.591,167.302 211.5,169.5C 210.363,173.579 209.029,177.579 207.5,181.5C 205.896,182.287 205.229,183.62 205.5,185.5C 204.247,189.611 202.247,193.277 199.5,196.5C 198.566,195.432 198.232,194.099 198.5,192.5C 198.384,189.14 198.051,185.807 197.5,182.5C 197.88,180.302 197.213,178.635 195.5,177.5C 194.99,174.017 194.323,170.684 193.5,167.5C 193.443,166.391 193.11,165.391 192.5,164.5C 193.151,163.909 193.818,163.243 194.5,162.5C 195.107,162.624 195.44,162.957 195.5,163.5 Z"/></g>
<g><path style="opacity:1" fill="#999999" d="M 195.5,163.5 C 197.574,164.514 199.574,165.514 201.5,166.5C 204.167,167.167 206.833,167.833 209.5,168.5C 204.005,171.552 199.172,170.552 195,165.5C 194.308,164.563 194.475,163.897 195.5,163.5 Z"/></g>
<g><path style="opacity:1" fill="#5e5e5e" d="M 212.5,165.5 C 212.768,167.099 212.434,168.432 211.5,169.5C 211.591,167.302 210.925,166.969 209.5,168.5C 206.833,167.833 204.167,167.167 201.5,166.5C 205.234,166.677 208.901,166.344 212.5,165.5 Z"/></g>
<g><path style="opacity:1" fill="#363636" d="M 193.5,167.5 C 194.323,170.684 194.99,174.017 195.5,177.5C 194.833,177.5 194.167,177.5 193.5,177.5C 192.9,176.1 191.9,175.1 190.5,174.5C 191.5,174.5 192.5,174.5 193.5,174.5C 193.5,172.167 193.5,169.833 193.5,167.5 Z"/></g>
<g><path style="opacity:1" fill="#a3a3a3" d="M 193.5,177.5 C 194.167,177.5 194.833,177.5 195.5,177.5C 195.796,179.403 196.463,181.07 197.5,182.5C 198.051,185.807 198.384,189.14 198.5,192.5C 197.262,194.214 196.595,196.214 196.5,198.5C 191.193,197.679 186.526,195.513 182.5,192C 183.207,188.8 184.04,185.633 185,182.5C 188.194,181.286 191.028,179.62 193.5,177.5 Z"/></g>
<g><path style="opacity:1" fill="#4c4c4c" d="M 195.5,177.5 C 197.213,178.635 197.88,180.302 197.5,182.5C 196.463,181.07 195.796,179.403 195.5,177.5 Z"/></g>
<g><path style="opacity:1" fill="#484848" d="M 179.5,187.5 C 179.737,186.209 179.404,185.209 178.5,184.5C 178.604,182.027 179.604,181.361 181.5,182.5C 180.972,184.336 180.306,186.003 179.5,187.5 Z"/></g>
<g><path style="opacity:1" fill="#4d4d4d" d="M 207.5,181.5 C 207.34,183.153 206.674,184.486 205.5,185.5C 205.229,183.62 205.896,182.287 207.5,181.5 Z"/></g>
<g><path style="opacity:1" fill="#7d7d7d" d="M 178.5,184.5 C 179.404,185.209 179.737,186.209 179.5,187.5C 179.762,188.978 179.429,190.311 178.5,191.5C 177.425,189.189 177.425,186.856 178.5,184.5 Z"/></g>
<g><path style="opacity:1" fill="#4d4d4d" d="M 99.5,194.5 C 98.7777,193.449 97.7777,192.782 96.5,192.5C 96.811,191.522 97.4777,190.855 98.5,190.5C 99.4287,191.689 99.762,193.022 99.5,194.5 Z"/></g>
<g><path style="opacity:1" fill="#4f4f4f" d="M 99.5,194.5 C 100.167,196.833 100.833,199.167 101.5,201.5C 101.44,202.043 101.107,202.376 100.5,202.5C 99.52,199.914 99.1866,197.247 99.5,194.5 Z"/></g>
<g><path style="opacity:1" fill="#545454" d="M 88.5,195.5 C 88.56,194.957 88.8933,194.624 89.5,194.5C 90.782,195.958 90.782,197.292 89.5,198.5C 89.7373,197.209 89.404,196.209 88.5,195.5 Z"/></g>
<g><path style="opacity:1" fill="#323232" d="M 198.5,192.5 C 198.232,194.099 198.566,195.432 199.5,196.5C 199.088,198.887 198.088,200.887 196.5,202.5C 197.354,200.965 197.354,199.632 196.5,198.5C 196.595,196.214 197.262,194.214 198.5,192.5 Z"/></g>
<g><path style="opacity:1" fill="#757575" d="M 175.5,198.5 C 173.473,198.338 171.473,198.505 169.5,199C 170.056,199.383 170.389,199.883 170.5,200.5C 168.284,199.797 166.451,198.464 165,196.5C 164.312,195.668 164.479,195.002 165.5,194.5C 168.688,196.446 172.021,197.779 175.5,198.5 Z"/></g>
<g><path style="opacity:1" fill="#989898" d="M 175.5,198.5 C 178.874,198.674 182.207,199.174 185.5,200C 186.833,201.333 186.833,202.667 185.5,204C 179.844,205.093 174.844,203.927 170.5,200.5C 170.389,199.883 170.056,199.383 169.5,199C 171.473,198.505 173.473,198.338 175.5,198.5 Z"/></g>
<g><path style="opacity:1" fill="#707070" d="M 129.5,181.5 C 129.269,189.209 129.602,196.876 130.5,204.5C 130.672,205.492 130.338,206.158 129.5,206.5C 127.833,205.5 126.5,204.167 125.5,202.5C 126.496,202.414 127.329,202.748 128,203.5C 128.171,195.989 128.671,188.655 129.5,181.5 Z"/></g>
<g><path style="opacity:1" fill="#404040" d="M 130.5,204.5 C 131.776,205.386 131.776,206.386 130.5,207.5C 129.893,207.376 129.56,207.043 129.5,206.5C 130.338,206.158 130.672,205.492 130.5,204.5 Z"/></g>
<g><path style="opacity:1" fill="#747474" d="M 176.5,211.5 C 173.482,211.704 170.482,212.037 167.5,212.5C 170.373,210.518 173.373,210.185 176.5,211.5 Z"/></g>
<g><path style="opacity:1" fill="#a3a3a3" d="M 176.5,211.5 C 178.292,211.366 179.958,211.699 181.5,212.5C 182.301,214.042 182.634,215.708 182.5,217.5C 180.494,224.497 176.161,226.33 169.5,223C 167.959,221.629 166.625,220.129 165.5,218.5C 165.167,217.167 164.833,215.833 164.5,214.5C 164.973,213.094 165.973,212.427 167.5,212.5C 170.482,212.037 173.482,211.704 176.5,211.5 Z"/></g>
<g><path style="opacity:1" fill="#454545" d="M 181.5,212.5 C 182.649,212.791 183.316,213.624 183.5,215C 183.472,216.07 183.139,216.903 182.5,217.5C 182.634,215.708 182.301,214.042 181.5,212.5 Z"/></g>
<g><path style="opacity:1" fill="#333333" d="M 201.5,215.5 C 200.833,215.5 200.5,215.833 200.5,216.5C 198.272,215.678 197.605,214.345 198.5,212.5C 199.548,213.548 200.548,214.548 201.5,215.5 Z"/></g>
<g><path style="opacity:1" fill="#4c4c4c" d="M 164.5,214.5 C 164.833,215.833 165.167,217.167 165.5,218.5C 163.481,217.462 163.147,216.128 164.5,214.5 Z"/></g>
<g><path style="opacity:1" fill="#494949" d="M 228.5,224.5 C 226.302,224.409 225.969,225.075 227.5,226.5C 222.577,224.705 217.91,222.372 213.5,219.5C 214,219.167 214.5,218.833 215,218.5C 219.689,220.437 224.189,222.437 228.5,224.5 Z"/></g>
<g><path style="opacity:1" fill="#272727" d="M 228.5,224.5 C 240.151,228.507 251.817,232.174 263.5,235.5C 262.081,236.451 260.415,236.784 258.5,236.5C 256.901,236.768 255.568,236.434 254.5,235.5C 252.401,234.388 250.067,233.721 247.5,233.5C 246.041,233.567 244.708,233.234 243.5,232.5C 241.786,231.262 239.786,230.595 237.5,230.5C 236.508,230.672 235.842,230.338 235.5,229.5C 233.786,228.262 231.786,227.595 229.5,227.5C 228.508,227.672 227.842,227.338 227.5,226.5C 225.969,225.075 226.302,224.409 228.5,224.5 Z"/></g>
<g><path style="opacity:1" fill="#7f7f7f" d="M 229.5,227.5 C 231.786,227.595 233.786,228.262 235.5,229.5C 232.99,229.946 230.99,229.28 229.5,227.5 Z"/></g>
<g><path style="opacity:1" fill="#818181" d="M 237.5,230.5 C 239.786,230.595 241.786,231.262 243.5,232.5C 240.918,232.975 238.918,232.308 237.5,230.5 Z"/></g>
<g><path style="opacity:1" fill="#a2a2a2" d="M 162.5,252.5 C 160.72,253.99 160.054,255.99 160.5,258.5C 159.614,259.776 158.614,259.776 157.5,258.5C 153.836,252.847 149.836,247.513 145.5,242.5C 145.423,241.25 144.756,240.417 143.5,240C 144.756,239.583 145.423,238.75 145.5,237.5C 152.324,230.962 160.324,229.129 169.5,232C 170.022,232.561 170.355,233.228 170.5,234C 167.92,240.315 165.253,246.481 162.5,252.5 Z"/></g>
<g><path style="opacity:1" fill="#737373" d="M 179.5,231.5 C 179.34,233.153 178.674,234.486 177.5,235.5C 177.229,233.62 177.896,232.287 179.5,231.5 Z"/></g>
<g><path style="opacity:1" fill="#7b7b7b" d="M 247.5,233.5 C 250.067,233.721 252.401,234.388 254.5,235.5C 252.473,235.662 250.473,235.495 248.5,235C 247.944,234.617 247.611,234.117 247.5,233.5 Z"/></g>
<g><path style="opacity:1" fill="#505050" d="M 212.5,233.5 C 213.906,233.973 214.573,234.973 214.5,236.5C 213.094,236.027 212.427,235.027 212.5,233.5 Z"/></g>
<g><path style="opacity:1" fill="#393939" d="M 263.5,235.5 C 270.91,236.915 278.243,238.582 285.5,240.5C 285.167,241.5 284.5,242.167 283.5,242.5C 275.018,240.628 266.685,238.628 258.5,236.5C 260.415,236.784 262.081,236.451 263.5,235.5 Z"/></g>
<g><path style="opacity:1" fill="#3b3b3b" d="M 144.5,242.5 C 142.784,242.629 141.117,242.962 139.5,243.5C 140.879,241.403 142.545,241.07 144.5,242.5 Z"/></g>
<g><path style="opacity:1" fill="#828282" d="M 145.5,237.5 C 145.423,238.75 144.756,239.583 143.5,240C 144.756,240.417 145.423,241.25 145.5,242.5C 145.167,242.5 144.833,242.5 144.5,242.5C 142.545,241.07 140.879,241.403 139.5,243.5C 137.004,244.58 134.67,245.914 132.5,247.5C 130.63,246.044 128.63,244.711 126.5,243.5C 128.455,244.323 130.455,244.49 132.5,244C 136.829,241.836 141.162,239.669 145.5,237.5 Z"/></g>
<g><path style="opacity:1" fill="#454545" d="M 124.5,246.5 C 122.379,246.325 120.379,246.659 118.5,247.5C 118.97,246.307 119.97,245.64 121.5,245.5C 122.726,245.52 123.726,245.853 124.5,246.5 Z"/></g>
<g><path style="opacity:1" fill="#737373" d="M 162.5,252.5 C 162.405,254.786 161.738,256.786 160.5,258.5C 160.054,255.99 160.72,253.99 162.5,252.5 Z"/></g>
<g><path style="opacity:1" fill="#7a7a7a" d="M 149.5,257.5 C 147.05,257.298 144.717,257.631 142.5,258.5C 142.418,256.748 143.251,255.748 145,255.5C 146.728,255.899 148.228,256.566 149.5,257.5 Z"/></g>
<g><path style="opacity:1" fill="#a7a7a7" d="M 149.5,257.5 C 151.411,258.075 153.078,259.075 154.5,260.5C 154.5,262.833 154.5,265.167 154.5,267.5C 153.869,269.975 152.869,272.309 151.5,274.5C 149.72,275.99 149.054,277.99 149.5,280.5C 149.737,281.791 149.404,282.791 148.5,283.5C 146.72,284.99 146.054,286.99 146.5,289.5C 144.191,296.305 142.524,303.305 141.5,310.5C 140.5,310.5 139.5,310.5 138.5,310.5C 137.858,300.636 136.858,290.802 135.5,281C 136.954,273.144 139.287,265.644 142.5,258.5C 144.717,257.631 147.05,257.298 149.5,257.5 Z"/></g>
<g><path style="opacity:1" fill="#727272" d="M 253.5,261.5 C 254.097,260.861 254.93,260.528 256,260.5C 257.699,260.387 258.866,261.053 259.5,262.5C 257.5,262.167 255.5,261.833 253.5,261.5 Z"/></g>
<g><path style="opacity:1" fill="#7a7a7a" d="M 154.5,260.5 C 155.695,260.866 156.361,261.699 156.5,263C 156.101,264.728 155.434,266.228 154.5,267.5C 154.5,265.167 154.5,262.833 154.5,260.5 Z"/></g>
<g><path style="opacity:0.929" fill="#0d0d0d" d="M 253.5,261.5 C 255.5,261.833 257.5,262.167 259.5,262.5C 260.833,263.833 262.167,265.167 263.5,266.5C 259.101,271.532 254.101,275.865 248.5,279.5C 248.394,273.885 249.394,268.551 251.5,263.5C 252.5,263.167 253.167,262.5 253.5,261.5 Z"/></g>
<g><path style="opacity:1" fill="#525252" d="M 253.5,261.5 C 253.167,262.5 252.5,263.167 251.5,263.5C 251.5,262.167 252.167,261.5 253.5,261.5 Z"/></g>
<g><path style="opacity:1" fill="#393939" d="M 160.5,273.5 C 160.768,271.901 160.434,270.568 159.5,269.5C 159.369,268.624 159.702,267.957 160.5,267.5C 161.793,269.636 161.793,271.636 160.5,273.5 Z"/></g>
<g><path style="opacity:0.985" fill="#a7a7a7" d="M 113.5,270.5 C 115.442,275.056 116.108,280.056 115.5,285.5C 114.566,286.568 114.232,287.901 114.5,289.5C 112.821,289.285 111.821,289.952 111.5,291.5C 109.898,295.239 108.898,299.239 108.5,303.5C 103.406,302.12 98.4061,300.453 93.5,298.5C 93.3341,293.489 93.5007,288.489 94,283.5C 101.472,280.51 107.972,276.177 113.5,270.5 Z"/></g>
<g><path style="opacity:1" fill="#474747" d="M 113.5,270.5 C 114.209,269.596 115.209,269.263 116.5,269.5C 116.821,275.026 116.488,280.36 115.5,285.5C 116.108,280.056 115.442,275.056 113.5,270.5 Z"/></g>
<g><path style="opacity:1" fill="#4d4d4d" d="M 234.5,270.5 C 234.573,272.027 233.906,273.027 232.5,273.5C 232.427,271.973 233.094,270.973 234.5,270.5 Z"/></g>
<g><path style="opacity:1" fill="#707070" d="M 159.5,269.5 C 160.434,270.568 160.768,271.901 160.5,273.5C 160.795,275.735 160.461,277.735 159.5,279.5C 159.306,275.995 158.306,275.662 156.5,278.5C 157.265,275.33 158.265,272.33 159.5,269.5 Z"/></g>
<g><path style="opacity:1" fill="#494949" d="M 91.5,272.5 C 92.1667,275.5 92.8333,278.5 93.5,281.5C 93.44,282.043 93.1067,282.376 92.5,282.5C 91.513,279.232 91.1796,275.898 91.5,272.5 Z"/></g>
<g><path style="opacity:1" fill="#737373" d="M 151.5,274.5 C 151.405,276.786 150.738,278.786 149.5,280.5C 149.054,277.99 149.72,275.99 151.5,274.5 Z"/></g>
<g><path style="opacity:1" fill="#4d4d4d" d="M 232.5,274.5 C 232.573,276.027 231.906,277.027 230.5,277.5C 230.427,275.973 231.094,274.973 232.5,274.5 Z"/></g>
<g><path style="opacity:0.968" fill="#494949" d="M 76.5,272.5 C 76.56,271.957 76.8933,271.624 77.5,271.5C 78.4963,277.798 78.8297,284.132 78.5,290.5C 78.1667,290.5 77.8333,290.5 77.5,290.5C 77.8229,284.31 77.4896,278.31 76.5,272.5 Z"/></g>
<g><path style="opacity:0.994" fill="#a0a0a0" d="M 76.5,272.5 C 77.4896,278.31 77.8229,284.31 77.5,290.5C 76.5,289.833 75.5,289.167 74.5,288.5C 75.3839,283.196 76.0506,277.863 76.5,272.5 Z"/></g>
<g><path style="opacity:1" fill="#4c4c4c" d="M 155.5,281.5 C 155.34,283.153 154.674,284.486 153.5,285.5C 153.229,283.62 153.896,282.287 155.5,281.5 Z"/></g>
<g><path style="opacity:1" fill="#737373" d="M 148.5,283.5 C 148.405,285.786 147.738,287.786 146.5,289.5C 146.054,286.99 146.72,284.99 148.5,283.5 Z"/></g>
<g><path style="opacity:1" fill="#9a9a9a" d="M 159.5,279.5 C 157.937,284.964 156.27,290.298 154.5,295.5C 152.72,296.99 152.054,298.99 152.5,301.5C 152.5,301.833 152.5,302.167 152.5,302.5C 150.896,303.287 150.229,304.62 150.5,306.5C 149.883,306.611 149.383,306.944 149,307.5C 148.503,305.19 148.337,302.857 148.5,300.5C 150.336,295.659 152.003,290.659 153.5,285.5C 154.674,284.486 155.34,283.153 155.5,281.5C 156.11,280.609 156.443,279.609 156.5,278.5C 158.306,275.662 159.306,275.995 159.5,279.5 Z"/></g>
<g><path style="opacity:1" fill="#474747" d="M 227.5,284.5 C 226.962,286.117 226.629,287.784 226.5,289.5C 225.07,287.545 225.403,285.879 227.5,284.5 Z"/></g>
<g><path style="opacity:1" fill="#585858" d="M 115.5,285.5 C 115.5,287.167 115.5,288.833 115.5,290.5C 114.041,290.433 112.708,290.766 111.5,291.5C 111.821,289.952 112.821,289.285 114.5,289.5C 114.232,287.901 114.566,286.568 115.5,285.5 Z"/></g>
<g><path style="opacity:1" fill="#767676" d="M 154.5,295.5 C 154.405,297.786 153.738,299.786 152.5,301.5C 152.054,298.99 152.72,296.99 154.5,295.5 Z"/></g>
<g><path style="opacity:1" fill="#4a4a4a" d="M 152.5,302.5 C 152.34,304.153 151.674,305.486 150.5,306.5C 150.229,304.62 150.896,303.287 152.5,302.5 Z"/></g>
<g><path style="opacity:1" fill="#7b7b7b" d="M 148.5,300.5 C 148.337,302.857 148.503,305.19 149,307.5C 149.383,306.944 149.883,306.611 150.5,306.5C 150.167,307.833 149.833,309.167 149.5,310.5C 148.5,310.5 147.5,310.5 146.5,310.5C 146.549,306.922 147.215,303.589 148.5,300.5 Z"/></g>
</svg>
